<mxfile host="app.diagrams.net" modified="2023-07-07T09:10:21.046Z" agent="Mozilla/5.0 (Windows NT 10.0; Win64; x64) AppleWebKit/537.36 (KHTML, like Gecko) Chrome/114.0.0.0 Safari/537.36 Edg/114.0.1823.58" etag="fK3G_6PTI4Ig_FdEQS_D" version="21.6.1" type="github">
  <diagram name="Page-1" id="ndiR8aRlZMa8h5y5lCom">
    <mxGraphModel dx="1386" dy="764" grid="1" gridSize="10" guides="1" tooltips="1" connect="1" arrows="1" fold="1" page="1" pageScale="1" pageWidth="850" pageHeight="1100" math="0" shadow="0">
      <root>
        <mxCell id="0" />
        <mxCell id="1" parent="0" />
        <mxCell id="NlHn_knD1Rgv9LDzIWcV-23" value="" style="edgeStyle=orthogonalEdgeStyle;rounded=0;orthogonalLoop=1;jettySize=auto;html=1;" edge="1" parent="1" source="NlHn_knD1Rgv9LDzIWcV-6" target="NlHn_knD1Rgv9LDzIWcV-22">
          <mxGeometry relative="1" as="geometry" />
        </mxCell>
        <mxCell id="NlHn_knD1Rgv9LDzIWcV-6" value="Model" style="whiteSpace=wrap;html=1;aspect=fixed;" vertex="1" parent="1">
          <mxGeometry x="280" y="40" width="80" height="80" as="geometry" />
        </mxCell>
        <mxCell id="NlHn_knD1Rgv9LDzIWcV-19" style="edgeStyle=orthogonalEdgeStyle;rounded=0;orthogonalLoop=1;jettySize=auto;html=1;exitX=1;exitY=0.5;exitDx=0;exitDy=0;entryX=0;entryY=0.5;entryDx=0;entryDy=0;" edge="1" parent="1" source="NlHn_knD1Rgv9LDzIWcV-7" target="NlHn_knD1Rgv9LDzIWcV-10">
          <mxGeometry relative="1" as="geometry" />
        </mxCell>
        <mxCell id="NlHn_knD1Rgv9LDzIWcV-21" style="edgeStyle=orthogonalEdgeStyle;rounded=0;orthogonalLoop=1;jettySize=auto;html=1;exitX=0.5;exitY=1;exitDx=0;exitDy=0;" edge="1" parent="1" source="NlHn_knD1Rgv9LDzIWcV-7">
          <mxGeometry relative="1" as="geometry">
            <mxPoint x="160" y="560" as="targetPoint" />
          </mxGeometry>
        </mxCell>
        <mxCell id="NlHn_knD1Rgv9LDzIWcV-7" value="Make Predictions" style="whiteSpace=wrap;html=1;aspect=fixed;" vertex="1" parent="1">
          <mxGeometry x="120" y="240" width="80" height="80" as="geometry" />
        </mxCell>
        <mxCell id="NlHn_knD1Rgv9LDzIWcV-8" value="Finalise Model Evaluations" style="whiteSpace=wrap;html=1;aspect=fixed;" vertex="1" parent="1">
          <mxGeometry x="120" y="560" width="80" height="80" as="geometry" />
        </mxCell>
        <mxCell id="NlHn_knD1Rgv9LDzIWcV-15" value="" style="edgeStyle=orthogonalEdgeStyle;rounded=0;orthogonalLoop=1;jettySize=auto;html=1;" edge="1" parent="1" source="NlHn_knD1Rgv9LDzIWcV-10" target="NlHn_knD1Rgv9LDzIWcV-14">
          <mxGeometry relative="1" as="geometry" />
        </mxCell>
        <mxCell id="NlHn_knD1Rgv9LDzIWcV-17" value="" style="edgeStyle=orthogonalEdgeStyle;rounded=0;orthogonalLoop=1;jettySize=auto;html=1;" edge="1" parent="1" source="NlHn_knD1Rgv9LDzIWcV-10" target="NlHn_knD1Rgv9LDzIWcV-16">
          <mxGeometry relative="1" as="geometry" />
        </mxCell>
        <mxCell id="NlHn_knD1Rgv9LDzIWcV-10" value="Split Data into Preds and Trues" style="whiteSpace=wrap;html=1;aspect=fixed;" vertex="1" parent="1">
          <mxGeometry x="520" y="530" width="80" height="80" as="geometry" />
        </mxCell>
        <mxCell id="NlHn_knD1Rgv9LDzIWcV-14" value="Refit model only on wrong predictions" style="whiteSpace=wrap;html=1;aspect=fixed;" vertex="1" parent="1">
          <mxGeometry x="520" y="240" width="80" height="80" as="geometry" />
        </mxCell>
        <mxCell id="NlHn_knD1Rgv9LDzIWcV-16" value="Refit model at 1:1:1:1 confusion matrix ratio" style="whiteSpace=wrap;html=1;aspect=fixed;" vertex="1" parent="1">
          <mxGeometry x="680" y="240" width="80" height="80" as="geometry" />
        </mxCell>
        <mxCell id="NlHn_knD1Rgv9LDzIWcV-22" value="Fit" style="whiteSpace=wrap;html=1;aspect=fixed;" vertex="1" parent="1">
          <mxGeometry x="120" y="40" width="80" height="80" as="geometry" />
        </mxCell>
        <mxCell id="NlHn_knD1Rgv9LDzIWcV-24" value="" style="endArrow=classic;html=1;rounded=0;exitX=0.5;exitY=1;exitDx=0;exitDy=0;entryX=0.5;entryY=0;entryDx=0;entryDy=0;" edge="1" parent="1" source="NlHn_knD1Rgv9LDzIWcV-22" target="NlHn_knD1Rgv9LDzIWcV-7">
          <mxGeometry width="50" height="50" relative="1" as="geometry">
            <mxPoint x="370" y="300" as="sourcePoint" />
            <mxPoint x="420" y="250" as="targetPoint" />
          </mxGeometry>
        </mxCell>
        <mxCell id="NlHn_knD1Rgv9LDzIWcV-25" value="&lt;font style=&quot;font-size: 18px;&quot;&gt;If F1 &amp;lt; 0.6&lt;/font&gt;" style="ellipse;whiteSpace=wrap;html=1;" vertex="1" parent="1">
          <mxGeometry x="240" y="280" width="120" height="80" as="geometry" />
        </mxCell>
        <mxCell id="NlHn_knD1Rgv9LDzIWcV-26" value="&lt;font style=&quot;font-size: 18px;&quot;&gt;If F1 &amp;gt; 0.6&lt;/font&gt;" style="ellipse;whiteSpace=wrap;html=1;" vertex="1" parent="1">
          <mxGeometry x="40" y="360" width="120" height="80" as="geometry" />
        </mxCell>
        <mxCell id="NlHn_knD1Rgv9LDzIWcV-28" value="&lt;font style=&quot;font-size: 24px;&quot;&gt;&lt;b&gt;OR&lt;/b&gt;&lt;/font&gt;" style="ellipse;whiteSpace=wrap;html=1;" vertex="1" parent="1">
          <mxGeometry x="600" y="240" width="80" height="80" as="geometry" />
        </mxCell>
        <mxCell id="NlHn_knD1Rgv9LDzIWcV-29" value="Return Fitted Model" style="whiteSpace=wrap;html=1;aspect=fixed;" vertex="1" parent="1">
          <mxGeometry x="600" y="120" width="80" height="80" as="geometry" />
        </mxCell>
        <mxCell id="NlHn_knD1Rgv9LDzIWcV-32" value="" style="endArrow=classic;html=1;rounded=0;exitX=0.5;exitY=0;exitDx=0;exitDy=0;entryX=0.5;entryY=1;entryDx=0;entryDy=0;" edge="1" parent="1" source="NlHn_knD1Rgv9LDzIWcV-14" target="NlHn_knD1Rgv9LDzIWcV-29">
          <mxGeometry width="50" height="50" relative="1" as="geometry">
            <mxPoint x="370" y="300" as="sourcePoint" />
            <mxPoint x="420" y="250" as="targetPoint" />
          </mxGeometry>
        </mxCell>
        <mxCell id="NlHn_knD1Rgv9LDzIWcV-33" value="" style="endArrow=classic;html=1;rounded=0;exitX=0.5;exitY=0;exitDx=0;exitDy=0;entryX=0.5;entryY=1;entryDx=0;entryDy=0;" edge="1" parent="1" source="NlHn_knD1Rgv9LDzIWcV-16" target="NlHn_knD1Rgv9LDzIWcV-29">
          <mxGeometry width="50" height="50" relative="1" as="geometry">
            <mxPoint x="700" y="200" as="sourcePoint" />
            <mxPoint x="780" y="160" as="targetPoint" />
          </mxGeometry>
        </mxCell>
        <mxCell id="NlHn_knD1Rgv9LDzIWcV-35" value="" style="curved=1;endArrow=classic;html=1;rounded=0;exitX=0;exitY=0.5;exitDx=0;exitDy=0;entryX=1;entryY=0;entryDx=0;entryDy=0;" edge="1" parent="1" source="NlHn_knD1Rgv9LDzIWcV-29" target="NlHn_knD1Rgv9LDzIWcV-7">
          <mxGeometry width="50" height="50" relative="1" as="geometry">
            <mxPoint x="370" y="300" as="sourcePoint" />
            <mxPoint x="250" y="210" as="targetPoint" />
            <Array as="points">
              <mxPoint x="360" y="140" />
              <mxPoint x="210" y="170" />
            </Array>
          </mxGeometry>
        </mxCell>
      </root>
    </mxGraphModel>
  </diagram>
</mxfile>
